# xmcd CD database file
#
# Track frame offsets:
#	150
#	27784
#	44180
#	63471
#	86179
#	118984
#	131663
#	157566
#	172793
#	191744
#	219915
#	230267
#
# Disc length: 3485 seconds
#
# Revision: 0
# Processed by: cddbd v1.5.2PL0 Copyright (c) Steve Scherf et al.
# Submitted via: CDex 1.70beta2
#
DISCID=a00d9b0c
DTITLE=Gita - Angel Eyes
DYEAR=2006
DGENRE=Jazz
TTITLE0=01 - Angel Eyes
TTITLE1=02 - What is thing called... L.o.v.e
TTITLE2=03 - Dessafinado
TTITLE3=04 - Someone to watch over me
TTITLE4=05 - Black cofee
TTITLE5=06 - I get a kick out of you
TTITLE6=07 - My one and only love
TTITLE7=08 - Autumn Leaves
TTITLE8=09 - The shadow of your smiles
TTITLE9=10 - Sophisticated lady
TTITLE10=11 - My romance
TTITLE11=12 - Spain
EXTD=YEAR: 2006
EXTT0=
EXTT1=
EXTT2=
EXTT3=
EXTT4=
EXTT5=
EXTT6=
EXTT7=
EXTT8=
EXTT9=
EXTT10=
EXTT11=
PLAYORDER=
